# File created by Blade
# Date/Time:  Thu Mar 15 16:00:31 2018
#---------------------------------------------------------
:version 1.10
:name HOM
:units
  mass 1.0
  length 1.000000
  angle deg
:documentation
     Acclaim Skeleton File
:root
   axis xyz
   order TX TY TZ RX RZ RY
   position 0.000000 0.000000 0.000000
   orientation 0 0 0
:bonedata
   begin
      id 1
      name Spine_dum
      direction 0.000000 0.554700 0.832050
      length 3.185137
      axis 0.0 0.0 0.0 xyz
   end
   begin
      id 2
      name RightUpLeg_dum
      direction -0.959879 0.000000 -0.280414
      length 3.741437
      axis 0.0 0.0 0.0 xyz
   end
   begin
      id 3
      name LeftUpLeg_dum
      direction 0.959879 0.000000 -0.280414
      length 3.741437
      axis 0.0 0.0 0.0 xyz
   end
   begin
      id 4
      name Spine
      direction 0.000000 0.173648 0.984808
      length 3.533592
      axis -10.0 0.0 0.0 xyz
      dof rx rz ry
   end
   begin
      id 5
      name Spine1
      direction 0.000000 0.087156 0.996195
      length 3.533592
      axis -5.0 0.0 0.0 xyz
      dof rx rz ry
   end
   begin
      id 6
      name Spine2
      direction 0.000000 0.000000 1.000000
      length 3.533592
      axis 0.0 0.0 0.0 xyz
      dof rx rz ry
   end
   begin
      id 7
      name Spine3
      direction 0.000000 -0.141421 0.989949
      length 0.000000
      axis 0.0 0.0 0.0 xyz
      dof rx rz ry
   end
   begin
      id 8
      name Spine3_dum1
      direction 0.000000 -0.141421 0.989949
      length 9.369850
      axis 0.0 0.0 0.0 xyz
   end
   begin
      id 9
      name Spine3_dum2
      direction -0.174242 -0.290403 0.940907
      length 6.947577
      axis 0.0 0.0 0.0 xyz
   end
   begin
      id 10
      name Spine3_dum3
      direction 0.174242 -0.290403 0.940907
      length 6.947577
      axis 0.0 0.0 0.0 xyz
   end
   begin
      id 11
      name Neck
      direction 0.000000 -0.173648 0.984808
      length 4.858689
      axis 10.0 0.0 0.0 xyz
      dof rx rz ry
   end
   begin
      id 12
      name Head
      direction 0.000000 0.000000 1.000000
      length 5.720002
      axis 0.0 0.0 0.0 xyz
      dof rx rz ry
   end
   begin
      id 13
      name RightShoulder
      direction -1.000000 0.000000 0.000000
      length 6.012446
      axis -180.0 0.0 -180.0 xyz
      dof rz rx ry
   end
   begin
      id 14
      name RightArm
      direction -1.000000 0.000000 0.000000
      length 11.728112
      axis -180.0 0.0 -180.0 xyz
      dof ry rz rx
   end
   begin
      id 15
      name RightForeArm
      direction -1.000000 0.000000 0.000000
      length 4.841601
      axis -180.0 0.0 -180.0 xyz
      dof rx ry rz
   end
   begin
      id 16
      name RightForeArmRoll
      direction -1.000000 0.000000 0.000000
      length 5.003964
      axis -180.0 0.0 -180.0 xyz
      dof rx ry rz
   end
   begin
      id 17
      name RightHand
      direction -1.000000 0.000000 0.000000
      length 0.000000
      axis -180.0 0.0 -180.0 xyz
      dof rx ry rz
   end
   begin
      id 18
      name RightHand_dum1
      direction -1.000000 0.000000 0.000000
      length 2.836875
      axis -180.0 0.0 -180.0 xyz
   end
   begin
      id 19
      name RightHand_dum2
      direction -0.486664 -0.811107 -0.324443
      length 2.331690
      axis -180.0 0.0 -180.0 xyz
   end
   begin
      id 20
      name RightHandEnd
      direction -1.000000 0.000000 0.000000
      length 2.836875
      axis 90.0 0.0 -180.0 xyz
      dof rx ry rz
   end
   begin
      id 21
      name RightHandThumb1
      direction -0.965926 -0.258819 0.000000
      length 2.836875
      axis -10.0 0.0 -165.0 xyz
      dof rx ry rz
   end
   begin
      id 22
      name LeftShoulder
      direction 1.000000 0.000000 0.000000
      length 6.012446
      axis 0.0 0.0 0.0 xyz
      dof rz rx ry
   end
   begin
      id 23
      name LeftArm
      direction 1.000000 0.000000 0.000000
      length 11.728112
      axis 0.0 0.0 0.0 xyz
      dof ry rz rx
   end
   begin
      id 24
      name LeftForeArm
      direction 1.000000 0.000000 0.000000
      length 4.841601
      axis 0.0 0.0 0.0 xyz
      dof rx ry rz
   end
   begin
      id 25
      name LeftForeArmRoll
      direction 1.000000 0.000000 0.000000
      length 5.003964
      axis 0.0 0.0 0.0 xyz
      dof rx ry rz
   end
   begin
      id 26
      name LeftHand
      direction 1.000000 0.000000 0.000000
      length 0.000000
      axis 0.0 0.0 0.0 xyz
      dof rx ry rz
   end
   begin
      id 27
      name LeftHand_dum1
      direction 1.000000 0.000000 0.000000
      length 2.836875
      axis 0.0 0.0 0.0 xyz
   end
   begin
      id 28
      name LeftHand_dum2
      direction 0.486664 -0.811107 -0.324443
      length 2.331690
      axis 0.0 0.0 0.0 xyz
   end
   begin
      id 29
      name LeftHandEnd
      direction 1.000000 0.000000 0.000000
      length 2.836875
      axis 90.0 0.0 0.0 xyz
      dof rx ry rz
   end
   begin
      id 30
      name LeftHandThumb1
      direction 0.965926 -0.258819 0.000000
      length 2.836875
      axis 170.0 0.0 -15.0 xyz
      dof rx ry rz
   end
   begin
      id 31
      name RightUpLeg
      direction 0.000000 0.000000 -1.000000
      length 15.861483
      axis 0.0 90.0 0.0 xyz
      dof ry rz rx
   end
   begin
      id 32
      name RightLeg
      direction 0.000000 0.000000 -1.000000
      length 17.164458
      axis 0.0 90.0 0.0 xyz
      dof rx ry rz
   end
   begin
      id 33
      name RightFoot
      direction 0.000000 -0.939693 -0.342020
      length 7.211980
      axis -90.0 20.0 -90.0 xyz
      dof rx rz ry
   end
   begin
      id 34
      name RightToeBase
      direction 0.000000 -1.000000 0.000000
      length 2.905343
      axis -90.0 0.0 -90.0 xyz
      dof ry rz rx
   end
   begin
      id 35
      name LeftUpLeg
      direction 0.000000 0.000000 -1.000000
      length 15.861483
      axis 0.0 90.0 0.0 xyz
      dof ry rz rx
   end
   begin
      id 36
      name LeftLeg
      direction 0.000000 0.000000 -1.000000
      length 17.164458
      axis 0.0 90.0 0.0 xyz
      dof rx ry rz
   end
   begin
      id 37
      name LeftFoot
      direction 0.000000 -0.939693 -0.342020
      length 7.211980
      axis -90.0 20.0 -90.0 xyz
      dof rx rz ry
   end
   begin
      id 38
      name LeftToeBase
      direction 0.000000 -1.000000 0.000000
      length 2.905343
      axis -90.0 0.0 -90.0 xyz
      dof ry rz rx
   end
:hierarchy
   begin
      root Spine_dum RightUpLeg_dum LeftUpLeg_dum
      Spine_dum Spine
      RightUpLeg_dum RightUpLeg
      LeftUpLeg_dum LeftUpLeg
      Spine Spine1
      Spine1 Spine2
      Spine2 Spine3
      Spine3 Spine3_dum1 Spine3_dum2 Spine3_dum3
      Spine3_dum1 Neck
      Spine3_dum2 RightShoulder
      Spine3_dum3 LeftShoulder
      Neck Head
      RightShoulder RightArm
      RightArm RightForeArm
      RightForeArm RightForeArmRoll
      RightForeArmRoll RightHand
      RightHand RightHand_dum1 RightHand_dum2
      RightHand_dum1 RightHandEnd
      RightHand_dum2 RightHandThumb1
      LeftShoulder LeftArm
      LeftArm LeftForeArm
      LeftForeArm LeftForeArmRoll
      LeftForeArmRoll LeftHand
      LeftHand LeftHand_dum1 LeftHand_dum2
      LeftHand_dum1 LeftHandEnd
      LeftHand_dum2 LeftHandThumb1
      RightUpLeg RightLeg
      RightLeg RightFoot
      RightFoot RightToeBase
      LeftUpLeg LeftLeg
      LeftLeg LeftFoot
      LeftFoot LeftToeBase
   end

# File created by Blade
# Date/Time:  Thu Mar 15 15:59:21 2018
# Frame Rate: 120.000 fps
#------------------------------------------------------
:FULLY-SPECIFIED
:DEGREES
1
root -0.266730 38.205625 -0.915709 -89.659248 0.136430 -0.142056
Spine -0.301781 0.070777 0.424318
Spine1 -0.734957 0.001512 0.100400
Spine2 1.515469 0.271536 0.358243
Spine3 0.164876 -0.073616 -0.434208
Neck -1.284570 -0.172765 -0.107740
Head -1.016301 -1.075616 -0.270244
RightShoulder 0.938502 -4.456652 -6.029953
RightArm -68.352158 -17.818647 -8.922539
RightForeArm 0.000000 -0.000000 -31.175995
RightForeArmRoll 5.030861 -0.000000 -0.000000
RightHand 0.000000 5.478001 -3.366191
RightHandEnd 0.000000 -0.000000 0.000000
RightHandThumb1 0.000000 -0.000000 0.000000
LeftShoulder 2.914066 5.293226 5.927725
LeftArm 67.871948 -38.298237 2.009001
LeftForeArm 0.000000 -0.000000 -19.389265
LeftForeArmRoll 3.698796 -0.000000 -0.000000
LeftHand -0.000000 -24.769400 7.665152
LeftHandEnd 0.000000 -0.000000 0.000000
LeftHandThumb1 0.000000 -0.000000 0.000000
RightUpLeg 4.107692 -1.187144 9.550741
RightLeg -0.000000 -0.000000 15.077395
RightFoot 3.686780 -15.056466 -2.168391
RightToeBase -0.000000 0.925517 -0.000000
LeftUpLeg -5.129156 1.093455 1.162379
LeftLeg -0.000000 -0.000000 11.057068
LeftFoot -8.351001 -12.750560 -0.888480
LeftToeBase -0.000000 0.806222 -0.000000
2
root -0.266244 38.201699 -0.912105 -89.626366 0.149557 -0.137568
Spine -0.316389 0.067901 0.429797
Spine1 -0.757741 0.001575 0.112517
Spine2 1.537988 0.231414 0.336386
Spine3 0.168786 -0.069464 -0.418858
Neck -1.270643 -0.205859 -0.066711
Head -1.063226 -1.019671 -0.339631
RightShoulder 0.921817 -4.538078 -6.123619
RightArm -68.105804 -18.866034 -9.264851
RightForeArm 0.000000 -0.000000 -31.155985
RightForeArmRoll 4.503770 -0.000000 -0.000000
RightHand -0.000000 7.896266 -3.031052
RightHandEnd 0.000000 -0.000000 0.000000
RightHandThumb1 0.000000 -0.000000 0.000000
LeftShoulder 2.958774 5.262622 5.931208
LeftArm 67.860878 -38.288662 2.023401
LeftForeArm 0.000000 -0.000000 -19.410860
LeftForeArmRoll 3.744622 -0.000000 -0.000000
LeftHand 0.000000 -25.459097 7.779694
LeftHandEnd 0.000000 -0.000000 0.000000
LeftHandThumb1 0.000000 -0.000000 0.000000
RightUpLeg 4.125624 -1.232698 9.560578
RightLeg -0.000000 -0.000000 15.102889
RightFoot 3.696004 -15.067917 -2.191646
RightToeBase -0.000000 0.921445 -0.000000
LeftUpLeg -5.112937 1.059946 1.145749
LeftLeg -0.000000 -0.000000 11.057139
LeftFoot -8.342653 -12.752659 -0.867317
LeftToeBase -0.000000 0.787787 -0.000000
3
root -0.224235 38.206889 -0.849375 -89.892593 0.310234 -0.224016
Spine -0.301715 0.066090 0.364860
Spine1 -0.744166 0.005013 0.089198
Spine2 1.716599 0.305339 0.512386
Spine3 0.187969 -0.082195 -0.391438
Neck -1.221505 -0.198570 -0.020774
Head -1.053253 -1.038729 -0.317011
RightShoulder 0.901315 -4.602781 -6.026717
RightArm -68.111977 -19.085657 -9.330754
RightForeArm 0.000000 -0.000000 -31.133385
RightForeArmRoll 4.341475 -0.000000 -0.000000
RightHand 0.000000 8.365231 -3.030540
RightHandEnd 0.000000 -0.000000 0.000000
RightHandThumb1 0.000000 -0.000000 0.000000
LeftShoulder 3.010563 5.291721 5.938467
LeftArm 67.915665 -38.307770 2.001392
LeftForeArm 0.000000 -0.000000 -19.414585
LeftForeArmRoll 3.765144 -0.000000 -0.000000
LeftHand -0.000000 -25.430702 7.775617
LeftHandEnd 0.000000 -0.000000 0.000000
LeftHandThumb1 0.000000 -0.000000 0.000000
RightUpLeg 4.486922 -0.892819 9.969905
RightLeg -0.000000 -0.000000 15.006448
RightFoot 3.557725 -15.092708 -2.729959
RightToeBase -0.000000 0.870576 -0.000000
LeftUpLeg -4.800876 1.697949 1.484566
LeftLeg -0.000000 -0.000000 10.638186
LeftFoot -8.358981 -12.618255 -1.394740
LeftToeBase -0.000000 0.797578 -0.000000
4
root -0.208452 38.211873 -0.820416 -89.996002 0.364785 -0.247853
Spine -0.289438 0.067999 0.341738
Spine1 -0.728611 0.005609 0.073709
Spine2 1.775705 0.343260 0.578628
Spine3 0.191390 -0.088708 -0.384102
Neck -1.198865 -0.183944 -0.021814
Head -1.040164 -1.058534 -0.276420
RightShoulder 0.893426 -4.642908 -5.966677
RightArm -68.142235 -19.045448 -9.305903
RightForeArm 0.000000 -0.000000 -31.136223
RightForeArmRoll 4.347680 -0.000000 -0.000000
RightHand 0.000000 8.311160 -3.056295
RightHandEnd 0.000000 -0.000000 0.000000
RightHandThumb1 0.000000 -0.000000 0.000000
LeftShoulder 3.028629 5.314891 5.976155
LeftArm 67.907005 -38.312809 1.992371
LeftForeArm 0.000000 -0.000000 -19.406500
LeftForeArmRoll 3.759388 -0.000000 -0.000000
LeftHand -0.000000 -25.479637 7.758492
LeftHandEnd 0.000000 -0.000000 0.000000
LeftHandThumb1 0.000000 -0.000000 0.000000
RightUpLeg 4.617350 -0.747336 10.124713
RightLeg -0.000000 -0.000000 14.964425
RightFoot 3.528185 -15.107341 -2.930708
RightToeBase -0.000000 0.905043 -0.000000
LeftUpLeg -4.688273 1.962672 1.659575
LeftLeg -0.000000 -0.000000 10.463134
LeftFoot -8.412678 -12.561461 -1.623633
LeftToeBase -0.000000 0.787591 -0.000000
5
root -0.211832 38.212179 -0.816721 -89.975067 0.343617 -0.239032
Spine -0.283106 0.068515 0.338889
Spine1 -0.717045 0.005383 0.067129
Spine2 1.745543 0.353745 0.577588
Spine3 0.186033 -0.084808 -0.393376
Neck -1.183118 -0.192795 -0.055667
Head -1.032193 -1.084090 -0.223369
RightShoulder 0.886661 -4.628411 -5.942234
RightArm -68.188393 -18.810131 -9.245874
RightForeArm 0.000000 -0.000000 -31.171322
RightForeArmRoll 4.592949 -0.000000 -0.000000
RightHand 0.000000 7.940133 -3.062296
RightHandEnd 0.000000 -0.000000 0.000000
RightHandThumb1 0.000000 -0.000000 0.000000
LeftShoulder 3.020275 5.318676 6.055120
LeftArm 67.828430 -38.233852 1.991983
LeftForeArm 0.000000 -0.000000 -19.274454
LeftForeArmRoll -5.319719 -0.000000 0.000000
LeftHand 0.000000 -21.419367 0.478898
LeftHandEnd 0.000000 -0.000000 0.000000
LeftHandThumb1 0.000000 -0.000000 0.000000
RightUpLeg 4.578610 -0.751936 10.094995
RightLeg -0.000000 -0.000000 14.964467
RightFoot 3.518058 -15.110490 -2.876754
RightToeBase -0.000000 0.929326 -0.000000
LeftUpLeg -4.722263 1.936984 1.636355
LeftLeg -0.000000 -0.000000 10.480952
LeftFoot -8.391951 -12.570660 -1.593957
LeftToeBase -0.000000 0.780583 -0.000000
